<?xml version="1.0" encoding="utf-8"?>
<!-- Generator: Adobe Illustrator 26.3.1, SVG Export Plug-In . SVG Version: 6.00 Build 0)  -->
<svg version="1.1" id="레이어_1" xmlns="http://www.w3.org/2000/svg" xmlns:xlink="http://www.w3.org/1999/xlink" x="0px"
	 y="0px" viewBox="0 0 176.55 175.75" style="enable-background:new 0 0 176.55 175.75;" xml:space="preserve">
<style type="text/css">
	.st0{fill:#0176F9;}
</style>
<g>
	<g>
		<g>
			<g>
				<g>
					<g>
						<path class="st0" d="M3.11,50.13c0-11.43,0-22.85,0-34.28c0-2.85,0.34-5.52,2.03-7.95c2.23-3.22,5.85-4.78,9.68-4.79
							c5.91-0.02,11.82,0,17.73,0c5.86,0,11.73,0,17.59,0c1.94,0,1.95-3.02,0-3.02c-11.62,0-23.24,0-34.86,0
							c-3.46,0-6.72,0.77-9.52,2.9C2.12,5.75,0.13,9.99,0.09,14.52c-0.06,5.76,0,11.52,0,17.28c0,6.11,0,12.23,0,18.34
							C0.09,52.08,3.11,52.08,3.11,50.13L3.11,50.13z"/>
					</g>
				</g>
				<g>
					<g>
						<path class="st0" d="M176.61,50.13c0-11.62,0-23.24,0-34.86c0-3.46-0.77-6.72-2.9-9.52c-2.76-3.63-6.99-5.61-11.52-5.66
							c-5.76-0.06-11.52,0-17.28,0c-6.11,0-12.23,0-18.34,0c-1.94,0-1.95,3.02,0,3.02c11.43,0,22.85,0,34.28,0
							c2.85,0,5.52,0.34,7.95,2.03c3.22,2.23,4.78,5.85,4.79,9.68c0.02,5.91,0,11.82,0,17.73c0,5.86,0,11.73,0,17.59
							C173.59,52.08,176.61,52.08,176.61,50.13L176.61,50.13z"/>
					</g>
				</g>
				<g>
					<g>
						<path class="st0" d="M173.59,125.77c0,11.43,0,22.85,0,34.28c0,2.85-0.34,5.52-2.03,7.95c-2.23,3.22-5.85,4.78-9.68,4.79
							c-5.91,0.02-11.82,0-17.73,0c-5.86,0-11.73,0-17.59,0c-1.94,0-1.95,3.02,0,3.02c11.62,0,23.24,0,34.86,0
							c3.46,0,6.72-0.77,9.52-2.9c3.63-2.76,5.61-6.99,5.66-11.52c0.06-5.76,0-11.52,0-17.28c0-6.11,0-12.23,0-18.34
							C176.61,123.83,173.59,123.83,173.59,125.77L173.59,125.77z"/>
					</g>
				</g>
				<g>
					<g>
						<path class="st0" d="M0.09,125.77c0,11.62,0,23.24,0,34.86c0,3.46,0.77,6.72,2.9,9.52c2.76,3.63,6.99,5.61,11.52,5.66
							c5.76,0.06,11.52,0,17.28,0c6.11,0,12.23,0,18.34,0c1.94,0,1.95-3.02,0-3.02c-11.43,0-22.85,0-34.28,0
							c-2.85,0-5.52-0.34-7.95-2.03c-3.22-2.23-4.78-5.85-4.79-9.68c-0.02-5.91,0-11.82,0-17.73c0-5.86,0-11.73,0-17.59
							C3.11,123.83,0.09,123.83,0.09,125.77L0.09,125.77z"/>
					</g>
				</g>
			</g>
		</g>
	</g>
</g>
</svg>
